<svg xmlns="http://www.w3.org/2000/svg" viewBox="0 0 98 96" fill="currentColor">
  <path fill-rule="evenodd" clip-rule="evenodd" d="M48.854 0C21.839 0 0 22 0 49.217c0 21.756 13.993 40.172 33.405 46.69 2.427.49 3.316-1.059 3.316-2.362 0-1.141-.08-5.052-.08-9.127-13.59 2.934-16.42-5.867-16.42-5.867-2.184-5.704-5.342-7.222-5.342-7.222-4.373-2.984.332-2.924.332-2.924 4.853.334 7.422 5.246 7.422 5.246 4.735 7.935 12.649 5.644 15.73 4.314 1.737-3.351 2.034-6.465.804-9.41-4.281-1.064-8.781-2.14-8.781-9.566 0-2.113.753-3.839 1.98-5.193-.199-.484-1.096-2.456.376-5.117 0 0 1.615-.522 5.309 1.984A18.17 18.17 0 0 1 49 9.593c1.636-.004 3.286.221 4.825.656 2.693-2.506 5.304-1.984 5.304-1.984 1.472 2.661.575 4.633.288 5.117 1.227 1.354 1.98 3.08 1.98 5.193 0 7.425-4.512 8.498-8.805 9.551.692 1.653.615 3.127.615 4.673 0 3.377-.03 6.104-.03 6.931 0 1.354 1.031 2.915 3.316 2.421A49.212 49.212 0 0 0 98 49.217C98 22 76.245 0 48.854 0Z"/>
</svg>
