<?xml version="1.0" encoding="UTF-8" standalone="no"?>
<svg xmlns:rdf="http://www.w3.org/1999/02/22-rdf-syntax-ns#" xmlns="http://www.w3.org/2000/svg" xml:space="preserve" height="190.82" viewBox="0 0 218.1515 190.82115" width="218.15" version="1.1" xmlns:cc="http://creativecommons.org/ns#" xmlns:dc="http://purl.org/dc/elements/1.1/"><g transform="matrix(1.25 0 0 -1.25 -459.31 829.24)"><g style="" transform="translate(.80914 .53942)"><path d="m534.73 558.68 5.6412 4.3392-6.5579 2.7648-7.4545 3.1416c1.4364 2.88 2.6389 5.9352 3.5616 9.1488 3.7692 13.112 2.328 26.958-3.9516 37.988-5.4071 9.498-13.973 16.192-24.121 18.846-4.8732 1.2744-9.8352 1.5696-14.71 0.924-0.288 1.8696-0.7692 3.762-1.458 5.6496-1.8588 5.1024-5.6952 11.017-10.906 12.32-0.1992 0.0504-0.4032 0.0756-0.6048 0.114-0.7451 2.0232-2.2308 3.7752-4.3776 5.1084-4.6944 2.9208-12.194 3.5832-19.571 1.728-5.4912-1.38-13.18-5.5416-19.585-10.598l-1.2336-1.038c-4.02-3.4584-18.859-17.518-36.452-10.757 3.0324-9.9815 8.2092-12.403 12.437-13.919-2.6004-1.4808-6.9012-3.462-15.743-1.4364 1.7509-6.354 6.1344-8.8476 7.4616-9.4932-6.6192-4.3716-15.112-13.436-12.218-28.606-4.9932-7.6308-9.2628-15.958-9.4764-21.485l-0.0696-1.7953 1.3081-1.2299 2.0099-1.8936c-0.3456-1.4304-0.7896-3.4584-1.2204-5.9352-0.0216-0.0108-0.0444-0.0193-0.066-0.03l-1.3847-0.666-0.6156-1.4064-2.3893-5.4517c-3.24-1.3139-5.5332-4.4879-5.5332-8.1911 0-4.8744 3.9672-8.8404 8.8416-8.8404 0.1728 0 0.342 0.0144 0.5124 0.0252 1.4784-1.0332 3.1308-2.0304 4.8792-2.7984l1.842-0.8088 1.7736 0.948 0.9805 0.522c0.3755-0.2508 0.7355-0.4848 1.008-0.6516l1.9667-1.1952 2.0544 1.0368 0.036 0.018c0.6768-2.5704 2.112-4.8756 4.1172-6.5016 2.0508-1.6536 4.524-2.5116 7.0548-2.4744l5.7301-1.8828c4.5119-1.4832 9.3096-2.5032 14.262-3.0348 10.999-1.1832 23.214-0.0252 36.307 3.438 28.156 7.4472 38.942 5.442 46.079 3.5748l14.929-4.5072c0 0.0001-0.1007 11.449-0.1056 11.566v21.882" fill="#fff"/><path d="m507.26 546.93 6.3191 0.7128 18.622 14.32-11.705 4.9344c2.3016 3.7308 4.1579 7.8624 5.4396 12.32 6.6588 23.17-4.5961 46.306-25.139 51.679-5.9628 1.5588-11.914 1.4412-17.527-0.0636 0.3804 8.9807-4.962 17.812-9.504 18.948-1.092 0.2724-2.214 0.27-3.3372 0.0276 0.162 0.6924 0.1824 1.3848 0.0372 2.0604-1.0188 4.7496-9.7092 7.2588-19.237 4.8612-4.4904-1.128-11.572-4.734-18.028-9.8304-2.6245-2.0724-18.097-17.129-33.428-13.814 1.1292-1.7459 7.0032-6.7811 15.811-5.6999-0.4344-0.4548-0.8688-0.9048-1.308-1.344-2.6244-2.6244-10.638-9.2556-17.543-7.4592 1.188-1.0188 6.2304-3.9108 13.208-2.9856-1.6224-0.9816-3.4512-1.9248-5.5079-2.8164-8.2885-3.5916-17.185-12.526-15.529-23.944 0 0 3.4464 9.5604 12.572 10.922-6.7908-6.78-21.782-27.592-22.124-36.493l3.7164-3.498s-1.194-4.0044-2.1276-10.247c-0.63-0.2208-1.2288-0.4596-1.776-0.7236l-3.1992-7.2996c-2.442-0.1668-4.374-2.1948-4.374-4.6788 0-2.5944 2.1024-4.6968 4.6968-4.6968 0.54 0 1.0549 0.0948 1.5384 0.2628 1.584-1.2252 3.4932-2.4949 5.5188-3.3852l3.1896 1.7016s2.046-1.4232 2.9028-1.9452l3.4944 1.7604s1.2792-0.3516 2.2536-0.6193c-0.0887-0.4967-0.1392-1.0043-0.1392-1.5251 0-0.3132 0.018-0.6324 0.0505-0.9516 0.2387-2.2392 1.3223-4.2888 2.9723-5.628 1.446-1.1652 3.2148-1.7052 4.9848-1.5181 1.3296 0.1416 2.5224 0.6769 3.504 1.4977v-2.2752l3.0876-1.0152c4.2108-1.3848 8.6976-2.3388 13.339-2.8368 10.45-1.122 22.118-0.007 34.679 3.3156 29.297 7.7472 40.77 5.3592 48.364 3.3732l9.1452-2.4852 0.0517 5.3436v19.127l-2.9461 1.0776c-1.5984 0.5868-3.2736 1.0968-5.0183 1.5336" fill="#003"/><path d="m179.96 62.061-32.328 6.5371-3.4941 10.301 9.8086-3.8281v38.828c0.0151 0.222 0.21508 4.3604-1.9824 8.0234l18.182-3.373c-2.967-3.8731-2.7215-8.8445-2.709-9.0215v-36.982l9.2363 0.55469 3.2871-11.039zm-37.424 7.3555-18.186 3.373c2.9655 3.8715 2.7222 8.841 2.7109 9.0195 0 0 0.00054 37.056-0.002 36.977 0.0135 0.225 0.21235 4.3682-1.9883 8.0312l18.186-3.375c-2.9625-3.8759-2.7158-8.8545-2.707-9.0977v-36.904c-0.009-0.2235-0.21117-4.3604 1.9863-8.0234zm-25.033 3.9258-18.187 3.375c2.967 3.8745 2.7234 8.8415 2.7109 9.0215v43.746c-0.006 0.5295-0.22838 11.753-6.6094 20.557 6.768-2.3445 20.094-9.3662 20.094-28.326h0.002s-0.00055-40.42 0.002-40.348c-0.0104-0.21912-0.21222-4.3609 1.9883-8.0254zm-24.965 5.1387-18.186 3.377c2.9669 3.8745 2.724 8.8421 2.709 9.0176v19.939l-13.853-27.019-14.059 2.629c0 6.9795 0.0012 46.703 0 46.637 0.015 0.222 0.2145 4.3613-1.9844 8.0273l18.186-3.373c-2.967-3.8775-2.7264-8.8434-2.7129-9.0234v-19.992l13.855 27.01 14.055-2.62c0-6.9765 0.0014-46.655 0.0039-46.588-0.0135-0.2205-0.21312-4.3628 1.9844-8.0273zm90.07 44.092-62.957 11.537c-0.456 1.377-0.98303 2.6731-1.5664 3.8926l46.186-7.6094 6.8379 1.3633 24.045-3.8984-12.545-5.2852zm-88.275 16.174-46.449 8.5137-1.1445 2.4961 46.311-7.6309c0.5115-1.134 0.9322-2.2734 1.2832-3.3789z" transform="matrix(.8 0 0 -.8 367.45 663.39)" fill="#fff"/><path d="m501.53 625.11c4.3787-1.2228 8.25-3.4752 11.518-6.4788l0.1284 0.0228c-3.6108 4.0188-8.1468 6.9984-13.404 8.4876-12.049 3.4092-24.709-1.9164-33.206-12.581l1.1675-1.4869-2.2751 0.0313c-0.8137-1.116-1.5829-2.2836-2.3016-3.5016l3.1799 0.576c8.4685 12.197 22.186 18.566 35.194 14.93" stroke="#fff" stroke-width="0.24" fill="#fff"/><path d="m112.59 12.266c-9.26 0.217-22.216 6.771-32.598 17.015-5.0385 4.9711-12.433 7.7955-15.539 8.832 0 0 8.0141-0.10375 15.432-4.3906-6.3674 6.9659-17.448 18.077-25.332 21.055 0 0 11.075-2.5665 23.855-13.791 7.8255-6.8745 23.826-30.445 41.986-26.727-2.0359-1.4336-4.7147-2.0666-7.8027-1.9941zm7.2988 7.3848c-5.9849 2.5905-14.276 5.5245-24.863 8.748 10.818 0.4605 22.216-5.9835 24.863-8.748zm11.584 1.4785c8.976 11.282 4.1465 23.254 4.1465 23.254 1.3801-1.152 4.1426-2.5352 4.1426-2.5352 1.839-10.13-5.0654-19.106-8.2891-20.719zm-40.23 25.257c-1.863 0.8355-3.6033 1.6752-5.2383 2.5137-0.56388 1.8405-0.78448 4.3847 0.47852 7.3262 0.01 0.0285 0.02751 0.05984 0.04102 0.08984 0.957-0.498 1.9525-0.99147 2.9785-1.4805-1.8045-4.128 0.31986-7.0842 1.7402-8.4492zm-6.959 3.418c-0.8505 0.45762-1.671 0.91373-2.457 1.3652-0.0435 2.3685 0.42898 4.6668 1.4746 6.9062 0.62238-0.3555 1.2556-0.70953 1.9141-1.0664-0.03-0.06762-0.06375-0.13367-0.09375-0.20117-1.152-2.682-1.1859-5.0974-0.83789-7.0039zm-5.8164 3.4102c-2.127 1.3634-3.9793 2.6856-5.5723 3.9336-0.21 0.9555-0.25508 2.0855 0.04492 3.377 0.2415 1.044 0.70888 2.1941 1.4844 3.4316 1.662-1.2795 3.5644-2.6186 5.7109-3.9746-1.2285-2.331-1.8013-4.6182-1.668-6.7676zm79.562 0.8125c-7.3259 0.1605-14.478 3.7926-20.191 9.9141l33.52-6.067c-1.881-1.2166-3.9069-2.1822-6.0684-2.8438-1.4205-0.4335-2.8489-0.71855-4.2812-0.87305l-2.9375 3.6621-0.0488-3.793zm-67.836 2.1211c-1.0335 0.4935-2.031 0.99119-2.9941 1.4922 1.3725 2.3625 3.8495 5.0708 8.207 7.8594 0.9825-0.57162 2.0214-1.1471 3.1074-1.7246-4.3829-2.805-6.9418-5.3665-8.3203-7.627zm-4.3066 2.1914c-0.651 0.3525-1.2782 0.7085-1.8945 1.0625 1.6305 2.829 4.2214 5.5668 7.9219 8.2383 0.654-0.42162 1.3269-0.8458 2.041-1.2793-3.7396-2.484-6.4377-5.1609-8.0684-8.0215zm-14.631 0.13672c-0.669 0.5625-1.2798 1.1021-1.8438 1.6211-0.2685 1.59 0.40816 3.747 2.1602 6.1875 0.537-0.4635 1.0962-0.93542 1.6992-1.4199-0.939-1.4475-1.492-2.7943-1.7754-4.0078-0.19362-0.8325-0.26124-1.6234-0.24024-2.3809zm9.6289 2.8066c-2.1015 1.338-3.9662 2.6584-5.5938 3.9199 1.7925 2.3401 4.7195 4.9573 9.332 7.7637 1.1625-0.9705 2.6078-2.1013 4.3281-3.3223-3.5954-2.724-6.3024-5.5607-8.0664-8.3613zm-19.295 0.69141c-8.436 1.8765-21.677 9.793-25.184 15.729 5.7405-5.7435 17.641-8.0098 17.641-8.0098 2.967-5.0805 7.543-7.7188 7.543-7.7188zm4.6992 1.2891c-1.0365 1.17-1.6813 2.0559-2.0098 2.5449 0 0-1.0354 2.5514 1.7246 6.0254 0.678-0.804 1.5949-1.8126 2.7754-2.9766-1.632-2.016-2.5847-3.9662-2.4902-5.5938zm33.223 1.1328-2.875 1.8594c2.1074 1.254 4.6099 2.5185 7.5664 3.7695l4.5781-0.82617c-3.7021-1.665-6.76-3.2682-9.2695-4.8027zm-25.357 1.7051c-0.5895 0.47388-1.1323 0.93522-1.6543 1.3867 1.806 2.163 4.4295 4.5004 7.959 6.8359l2.8066-0.50977c-4.398-2.7585-7.2843-5.358-9.1113-7.7129zm21.068 1.0703-2.0664 1.334c1.3515 0.9135 2.8331 1.8178 4.4531 2.7148l3.9434-0.71484c-2.3445-1.0665-4.4537-2.1805-6.3301-3.334zm-25.449 2.832c-1.1955 1.1775-2.1077 2.1854-2.7617 2.9609 0.972 0.9825 2.2548 2.0191 3.9453 3.0781l4.8613-0.88086c-2.322-1.617-4.4144-3.3942-6.0449-5.1582zm20.326 0.48242-4.4902 2.9062 6.9395-1.2578c-0.85188-0.543-1.6707-1.0934-2.4492-1.6484zm93.41 3.4922-2.2109 7.9492-7.875-0.9043v26.553c0 5.193 2.4082 8.8891 4.7812 9.2266 2.8666-4.308 5.1305-9.3791 6.5195-15.037 0.5925-2.4045 0.99001-4.8094 1.2285-7.1914l-6.3848-2.3223 6.6055-1.1484c0.1815-6.0961-0.76944-11.942-2.6641-17.125zm-141.59 18.352c-5.9954 5.748-17.873 20.563-20.613 29.68l1.7695 1.8652c1.0365-0.804 2.1003-1.4935 3.1758-2.1055l8.4238-15.043-3.9473 12.98c1.8615-0.67662 3.6748-1.1374 5.3398-1.4434l2.2285-7.9199 0.50195 7.5273c1.194-0.126 2.2571-0.18018 3.1211-0.19531v-25.346zm0 29.061c-10.726 1.344-14.401 4.3368-16.564 6.7188-0.9975 2.1-3.125 7.7321-3.125 9.7031l8.8828-1.6133c-0.135-0.522-0.24228-1.0559-0.30078-1.6094-0.042-0.393-0.0625-0.78247-0.0625-1.168 0-4.9515 3.3616-9.1644 7.9141-9.6504 1.1281-0.12 2.2239 0.005 3.2559 0.32422v-2.7051zm111.79 27.361c-3.2498-0.0154-6.64 0.11177-10.168 0.38477-14.874 1.152-28.826 4.5167-38.025 6.9512-20.33 5.3745-33.928 4.153-42.252 2.0664l-8.7598 0.98632v16.662c4.1219 1.3545 9.2615 2.6244 15.52 3.2949 12.381 1.329 26.281-0.0127 41.314-3.9902 44.013-11.64 57.362-4.5168 67.773-2.3613v-19.986c-7.1651-2.6212-15.653-3.9617-25.402-4.0078z" transform="matrix(.8 0 0 -.8 367.45 663.39)" fill="#c00"/><path d="m154.4 152.66 1.1582 1.0742v4.918l-1.1816-0.0527 1.1816 1.0879v4.8047l2.3379 0.10937v-3.8926l0.6582 0.0312 2.9102 4.0293 2.7402 0.25195-3.1289-4.1602 0.33593 0.0137c1.3215 0.06 1.9805-0.55433 1.9805-1.8457v-4.0078c0-0.52812-0.18944-0.99357-0.57031-1.3926-0.381-0.399-0.85353-0.61168-1.4102-0.63868l-7.0117-0.33007zm-2.5488 0.004-7.3555 0.31641 1.1562 0.97851v4.9785l-1.1777 0.0527 1.1777 0.99415v4.8594l6.1992-0.26758v-1.9688l-3.8398 0.16602v-2.3106l3.8398-1.791-3.8398 0.16406v-4.0371l2.4746-0.10938 1.3652 1.4238v-3.4492zm-11.52 0.69336c-0.12878-0.007-0.26442-0.003-0.40429 0.0156l-7.3555 0.97461 1.1562 0.88281v10.982l6.1992-0.82227c1.3245-0.17399 1.9863-0.92251 1.9863-2.2441v-8.0566c0-0.54-0.19322-0.97981-0.57422-1.3203-0.28575-0.25416-0.62145-0.39049-1.0078-0.41211zm28.191 0.59375c-0.39885-0.0193-0.73984 0.0884-1.0234 0.32227-0.375 0.312-0.5664 0.72709-0.5664 1.2461v4.084c0 0.19362 0.0209 0.38054 0.0644 0.56054 0.105 0.4635 0.32895 0.86608 0.67383 1.2051 0.34062 0.3405 0.76553 0.56555 1.2695 0.68555l3.166 0.74609v1.9863l-5-1.1738v1.9844l5.3516 1.2559c0.6165 0.144 1.1047 0.0624 1.4707-0.24805 0.34213-0.279 0.51758-0.69967 0.51758-1.2637v-1.998c0-0.552-0.19141-1.0651-0.56641-1.5391-0.37787-0.4695-0.85037-0.77321-1.4219-0.90821l-3.166-0.74414v-4.0723l3.1074 0.72851 1.3672 1.8164v-3.4805l-4.8262-1.1328c-0.14587-0.0349-0.28502-0.0541-0.41797-0.0606zm-38.605 0.78125-2.3379 0.41602v6.5352l-3.1894-5.9648-3.7949 0.77344 1.1582 0.82617v11.234l2.334-0.47461v-7.6816l3.5293 6.9648 2.3008-0.46875v-12.16zm27.979 0.041 3.1641 0.14648v3.9922l-3.1641-0.14844v-3.9902zm-18.316 0.63281v8.0449l-3.5156 0.46485v-8.0469l3.5156-0.46289zm-23.193 2.0996c-0.11608 0.003-0.23389 0.0197-0.35351 0.0508l-4.1953 1.0762c-0.603 0.156-1.0868 0.47299-1.4453 0.95899-0.357 0.4845-0.53711 1.0105-0.53711 1.5762v4.1836l-1.1816 0.30078 1.1816 0.78321v5.0234l2.3379-0.5996v-4.0703l3.4883-1.9668v5.1445l2.3359-0.59961v-10.291c0-0.486-0.21131-0.89084-0.63281-1.2148-0.31725-0.24413-0.64979-0.36363-0.99805-0.35547zm-0.70508 2.1758v4.1758l-3.4883 0.89649v-4.1758l3.4883-0.89648zm-11.961 0.86914-3.5137 0.84375 1.1582 0.7832v11.24l6.1973-1.4883v-3.5606l-1.3652 1.8594-2.4766 0.59375v-10.271zm-45.277 0.25391 1.1777 1.3438v5.0039l-1.1777-0.28711 1.1777 1.3438v4.9004l2.3379 0.57031v-3.9727l3.1621-0.27539v5.0176l2.3398 0.56836v-12.02l-2.3398-0.56836v6.0625l-3.1621-0.77344v-6.0586l-3.5156-0.85547zm39.379 1.0371-2.3379 0.36523v6.1641l-3.1641 0.49805v-6.168l-3.5156 0.55469 1.1816 0.88672v5.0957l-1.1816 0.18555 1.1816 0.88672v4.9902l2.334-0.36719v-4.041l3.1641-1.5606v5.1035l2.3379-0.36328v-12.23zm-27.365 1.5527 0.82812 0.8125v11.275l2.6875 0.22852v-12.021l-3.5156-0.29492zm15.277 0.1543-5.8691 0.27344c-0.57 0.027-1.0416 0.24901-1.418 0.66601-0.3765 0.42-0.56445 0.88875-0.56445 1.4062v8.0586c0 0.2385 0.02245 0.45766 0.06445 0.66016 0.2175 0.867 0.85597 1.2785 1.918 1.2305l6.2031-0.29492v-5.957l-4.8984 0.23047 2.5605 1.8652v1.9883l-3.5117 0.16406v-8.0469l4.1465-0.19531 1.3691 1.4336v-3.4824z" transform="matrix(.8 0 0 -.8 367.45 663.39)" fill="#fff"/><path d="m124.66 23.746c-0.462 0.48738-12.707 3.9175-15.861 4.6914l7.2168 2.2109 2.3106 0.69141v8.8906l2.2168 0.27148 1.1992-1.8164 1.5274 3.9551h-6.1074v2.623h5.3574l1.6328 4.207h-0.86133l-2.1641-1.2832h-5.3691v3.123h4.8672l-1.9805 3.2285-3.6582-0.15234-1.8789 3.0938 4.0918 2.3867s1.5914-2.4885 4.3574-4.8105c2.763-2.3235 3.8008-2.9805 3.8008-2.9805l2.7246-7.9688h-1.9668l3.3613-4.6992 0.57422-4.2578-1.7363-1.4219-2.3945 1.2676-3.4824-0.44141-1.2793-3 7.7734-2.9453c-1.113-4.1295-4.2715-4.8633-4.2715-4.8633zm-19.176 9.9141-3.3496 3.5898 5.7637 3.2656-0.89257 3.3691 4.0449-1.7695 3.9375-8.2598-5.2559 0.80469-4.248-1zm-3.5469 10.561c0.00012 0 0.41879 5.6505 1.1074 6.9434 0.65087 1.2225 1.582 1.9435 3.832 3.2695l-0.79492-1.5898-1.5488-2.1758-2.5957-6.4473zm56.469 2.3613c-13.269-0.03124-26.2 7.5482-34.801 19.936l5.4258-0.98242c9.249-11.895 23.238-17.89 36.543-14.139 3.993 1.1265 7.5979 3.0451 10.754 5.5801l5.6621-1.0234c-4.0845-3.753-8.9192-6.5711-14.393-8.0996-3.0488-0.85216-6.1294-1.2643-9.1914-1.2715zm28.381 15.617-1.5645 5.6211c5.2185 9.669 6.81 22.222 3.459 34.791-1.383 5.1884-3.4937 9.9236-6.1426 14.1l3.6992 1.5918c2.4046-4.2375 4.344-8.9259 5.6894-13.982 4.0876-15.384 1.7744-30.744-5.1406-42.121zm-35.951 5.752-3.1973 0.64648-3.4941 10.301 9.8086-3.8281v38.828c0.0151 0.222 0.21508 4.3604-1.9824 8.0234l18.182-3.373c-0.75912-0.99163-1.3068-2.0597-1.7012-3.0977l-10.861 1.9941v-46.764l-8.7285 3.2988 1.9746-6.0293zm16.607 1.123v3.4707l9.2363 0.55469 0.99219-3.3398-10.229-0.68555zm-42.803 3.6602-0.2832 0.05469c2.9655 3.8715 2.7216 8.841 2.7109 9.0195 0 0 0.00054 37.056-0.002 36.977 0.0135 0.225 0.21235 4.3682-1.9883 8.0312l18.186-3.375c-0.753-0.987-1.295-2.0442-1.6894-3.0762l-11.211 2.041v-43.42s-0.50716-3.7351-5.7227-6.252zm-25.318 3.9824c2.967 3.8745 2.7229 8.8415 2.7109 9.0215v43.746c-0.006 0.52949-0.22838 11.753-6.6094 20.557 10.221-8.493 10.205-21.488 10.205-21.488v-45.035s0.2001-4.7773-6.3008-6.8008h-0.0059zm-24.842 5.3086c2.8335 3.8475 2.6014 8.6756 2.5879 8.8496v19.939l-0.17773-0.35156 0.02148 0.22266 3.6602 6.8887v-29.199c0-0.000125-0.6513-3.8296-6.0918-6.3496zm-24.801 4.3066-0.52148 0.09766c0 6.9795-0.000703 46.703-0.002 46.637 0.015 0.222 0.2145 4.3613-1.9844 8.0273l18.188-3.373c-0.753-0.9825-1.3008-2.0379-1.6953-3.0684l-10.488 1.9141v-47.193l-3.4961-3.041zm12.979 16.193v6.2012l13.844 26.996 14.055-2.627v-3.2226l-12.441 2.1973-15.457-29.545zm132.5 25.332-24.045 3.8984 0.1582 0.0332-6.2168 3.627-49.584 7.0703c-1.356 1.941-2.8624 3.6287-4.4238 5.0957l69.766-7.9043 14.346-11.82zm-155.56 1.4609c-1.827 0.1935-3.1094 2.2771-2.8574 4.6426 0.1125 1.0665 0.53148 2.0282 1.1465 2.7422 1.3545 0.054 2.6113-2.0644 2.6113-2.0644-1.971 5.2425-2.7844 11.043-2.1484 17.037 0.6345 5.9925 2.6509 11.494 5.6777 16.201 0 0-1.6743-1.8058-2.9883-1.4668-0.4515 0.8235-0.66088 1.852-0.54687 2.9199 0.249 2.367 1.9425 4.1334 3.7695 3.9414 1.7385-0.1845 2.9896-2.2697 2.8516-4.7402-0.05537-0.954-0.34544-1.8318-0.83594-2.5293l-0.02539-0.0351-0.02148-0.0352c-2.3775-3.7004-4.2096-8.2217-4.8848-14.574-0.6765-6.3555 0.1688-11.16 1.7168-15.277l0.01367-0.0391 0.01563-0.041c0.336-0.78887 0.43756-1.701 0.28906-2.6445v-0.002c-0.3855-2.4465-2.0461-4.2197-3.7832-4.0352zm-6.498 15.246-14.68 2.6836-3.043 9.2363 3.7344 0.70117 3.7305-1.3926 4.1133 0.34961 3.7266-1.7305 2.5684 0.041c-0.132-0.729-0.24622-1.4621-0.32422-2.2031-0.1155-1.077-0.16992-2.1497-0.16992-3.2207 0-1.4955 0.12175-2.9844 0.34375-4.4648zm57.805 1.4238-43.729 6.2324 1.584 2.416 39.104-4.4297 2.6836-3.7012c0.123-0.17113 0.24042-0.34658 0.35742-0.51758z" transform="matrix(.8 0 0 -.8 367.45 663.39)" stroke="#ccc" stroke-width="0.3" fill="#ccc"/><path d="m81.824 51.17c-0.0285 0.0165-0.05594 0.03623-0.08594 0.05273-0.50988 0.2955-1.0057 0.58881-1.4902 0.88281-0.12 0.072-0.23742 0.14492-0.35742 0.2168-0.4485 0.276-0.88891 0.54972-1.3164 0.82422-0.036 0.0225-0.07337 0.04424-0.10938 0.06836-0.13338 2.1494 0.43947 4.4366 1.668 6.7676 1.0005-0.6345 2.0544-1.2688 3.166-1.9062-1.0456-2.2395-1.5181-4.5378-1.4746-6.9062zm2.166 8.2324c-1.0906 0.627-2.1249 1.2569-3.1074 1.8809 1.764 2.8006 4.471 5.6373 8.0664 8.3613 0.9075-0.645 1.8964-1.314 2.9629-2.0039-3.7005-2.6715-6.2914-5.4093-7.9219-8.2383zm-14.58 0.69531c-0.0075 0.0063-0.01216 0.01253-0.01953 0.01953-1.2781 1.1775-2.295 2.2331-3.084 3.1211-0.0075 0.0075-0.01203 0.01639-0.01953 0.02539-0.0945 1.6275 0.85824 3.5778 2.4902 5.5938 0.8055-0.7935 1.734-1.6573 2.793-2.5723-1.752-2.4405-2.4287-4.5975-2.1602-6.1875zm3.0879 7.3906c-1.035 0.897-1.9436 1.7431-2.7266 2.5156 1.6305 1.764 3.7229 3.5412 6.0449 5.1582l4.6406-0.83789c-3.5295-2.3355-6.153-4.6729-7.959-6.8359zm20.656 1.0176-3.0566 1.9805c0.7785 0.555 1.5973 1.1054 2.4492 1.6484l5.0605-0.91406c-1.62-0.897-3.1016-1.8013-4.4531-2.7148z" transform="matrix(.8 0 0 -.8 367.45 663.39)" fill="#fff"/></g></g></svg>
